<mxfile host="65bd71144e">
    <diagram id="Rr6S4Ah8kOE3q6iGMgMT" name="Page-1">
        <mxGraphModel dx="-1185" dy="3236" grid="1" gridSize="10" guides="1" tooltips="1" connect="1" arrows="1" fold="1" page="1" pageScale="1" pageWidth="850" pageHeight="1100" math="0" shadow="0">
            <root>
                <mxCell id="0"/>
                <mxCell id="1" parent="0"/>
                <mxCell id="2" value="" style="rounded=0;whiteSpace=wrap;html=1;fontSize=12;" vertex="1" parent="1">
                    <mxGeometry x="2110" y="-1170" width="1360" height="930" as="geometry"/>
                </mxCell>
                <mxCell id="3" value="" style="group;fillColor=#fff2cc;strokeColor=#d6b656;" vertex="1" connectable="0" parent="1">
                    <mxGeometry x="2800" y="-1130" width="640" height="850" as="geometry"/>
                </mxCell>
                <mxCell id="4" value="" style="group" vertex="1" connectable="0" parent="3">
                    <mxGeometry width="640" height="849.9999999999998" as="geometry"/>
                </mxCell>
                <mxCell id="5" value="" style="rounded=0;whiteSpace=wrap;html=1;fillColor=#fff2cc;strokeColor=#d6b656;" vertex="1" parent="4">
                    <mxGeometry width="640" height="849.9999999999998" as="geometry"/>
                </mxCell>
                <mxCell id="6" value="" style="group" vertex="1" connectable="0" parent="4">
                    <mxGeometry x="10.314754098360481" y="71.3599999999999" width="619.3652459016394" height="707.27" as="geometry"/>
                </mxCell>
                <mxCell id="7" value="$ &lt;b&gt;&lt;u&gt;orbit new&lt;/u&gt;&lt;/b&gt;" style="rounded=1;whiteSpace=wrap;html=1;fontSize=12;" vertex="1" parent="6">
                    <mxGeometry y="40.76999999999998" width="106.22950819672131" height="38.46" as="geometry"/>
                </mxCell>
                <mxCell id="8" value="$ &lt;b&gt;&lt;u&gt;orbit init&lt;/u&gt;&lt;/b&gt;" style="rounded=1;whiteSpace=wrap;html=1;fontSize=12;" vertex="1" parent="6">
                    <mxGeometry y="177.78999999999996" width="106.22950819672131" height="38.46" as="geometry"/>
                </mxCell>
                <mxCell id="9" value="$ &lt;b&gt;&lt;u&gt;orbit build&lt;/u&gt;&lt;/b&gt;" style="rounded=1;whiteSpace=wrap;html=1;fontSize=12;" vertex="1" parent="6">
                    <mxGeometry x="510" y="547.77" width="106.22950819672131" height="38.46" as="geometry"/>
                </mxCell>
                <mxCell id="10" value="$ &lt;b&gt;&lt;u&gt;orbit get&lt;/u&gt;&lt;/b&gt;" style="rounded=1;whiteSpace=wrap;html=1;fontSize=12;" vertex="1" parent="6">
                    <mxGeometry x="510" y="40.76999999999998" width="106.22950819672131" height="38.46" as="geometry"/>
                </mxCell>
                <mxCell id="11" value="$ &lt;b&gt;&lt;u&gt;orbit test&lt;/u&gt;&lt;/b&gt;" style="rounded=1;whiteSpace=wrap;html=1;fontSize=12;" vertex="1" parent="6">
                    <mxGeometry x="336.87999999999965" y="547.77" width="106.22950819672131" height="38.46" as="geometry"/>
                </mxCell>
                <mxCell id="12" value="Create an ip from&lt;br&gt;an existing project" style="ellipse;whiteSpace=wrap;html=1;aspect=fixed;" vertex="1" parent="6">
                    <mxGeometry x="139.99524590163946" y="140.76999999999998" width="112.5" height="112.5" as="geometry"/>
                </mxCell>
                <mxCell id="13" value="Create an ip from scratch" style="ellipse;whiteSpace=wrap;html=1;aspect=fixed;" vertex="1" parent="6">
                    <mxGeometry x="139.99524590163946" y="3.75" width="112.5" height="112.5" as="geometry"/>
                </mxCell>
                <mxCell id="14" value="Display HDL &lt;br&gt;code snippets to instantiate an existing design &lt;br&gt;unit" style="ellipse;whiteSpace=wrap;html=1;aspect=fixed;" vertex="1" parent="6">
                    <mxGeometry x="506.8652459016391" y="130.76999999999998" width="112.5" height="112.5" as="geometry"/>
                </mxCell>
                <mxCell id="15" value="Does the process for &lt;br&gt;the current design unit &lt;br&gt;use a testbench?" style="rhombus;whiteSpace=wrap;html=1;" vertex="1" parent="6">
                    <mxGeometry x="309.99524590163946" y="380.77" width="160" height="120" as="geometry"/>
                </mxCell>
                <mxCell id="16" value="Add the design unit&#39;s ip to the manifest&#39;s dependency list" style="ellipse;whiteSpace=wrap;html=1;aspect=fixed;" vertex="1" parent="6">
                    <mxGeometry x="506.86524590163935" y="280.77" width="112.5" height="112.5" as="geometry"/>
                </mxCell>
                <mxCell id="17" value="Using a design unit&amp;nbsp;&lt;div&gt;from&amp;nbsp;&lt;span style=&quot;background-color: transparent;&quot;&gt;an existing ip?&lt;/span&gt;&lt;/div&gt;" style="rhombus;whiteSpace=wrap;html=1;" vertex="1" parent="6">
                    <mxGeometry x="309.99524590163924" width="160" height="120" as="geometry"/>
                </mxCell>
                <mxCell id="18" value="Inspect output to determine if the previous process was successful" style="ellipse;whiteSpace=wrap;html=1;aspect=fixed;" vertex="1" parent="6">
                    <mxGeometry x="66.99524590163946" y="594.77" width="112.5" height="112.5" as="geometry"/>
                </mxCell>
                <mxCell id="19" value="" style="endArrow=classic;html=1;exitX=1;exitY=0.5;exitDx=0;exitDy=0;entryX=0;entryY=0.5;entryDx=0;entryDy=0;" edge="1" parent="6" source="7" target="13">
                    <mxGeometry width="50" height="50" relative="1" as="geometry">
                        <mxPoint x="89.99524590163946" y="-119.23000000000002" as="sourcePoint"/>
                        <mxPoint x="139.99524590163946" y="-169.23000000000002" as="targetPoint"/>
                    </mxGeometry>
                </mxCell>
                <mxCell id="20" value="" style="endArrow=classic;html=1;exitX=1;exitY=0.5;exitDx=0;exitDy=0;entryX=0;entryY=0.5;entryDx=0;entryDy=0;" edge="1" parent="6" source="8" target="12">
                    <mxGeometry width="50" height="50" relative="1" as="geometry">
                        <mxPoint x="90.99524590163946" y="200.76999999999998" as="sourcePoint"/>
                        <mxPoint x="149.99524590163946" y="200.76999999999998" as="targetPoint"/>
                    </mxGeometry>
                </mxCell>
                <mxCell id="21" value="" style="endArrow=classic;html=1;exitX=1;exitY=0.5;exitDx=0;exitDy=0;entryX=0;entryY=0.5;entryDx=0;entryDy=0;" edge="1" parent="6" source="13" target="17">
                    <mxGeometry width="50" height="50" relative="1" as="geometry">
                        <mxPoint x="252.99524590163946" y="46.76999999999998" as="sourcePoint"/>
                        <mxPoint x="299.99524590163946" y="59.76999999999998" as="targetPoint"/>
                    </mxGeometry>
                </mxCell>
                <mxCell id="22" value="" style="endArrow=none;html=1;rounded=0;curved=0;exitX=1;exitY=0.5;exitDx=0;exitDy=0;entryX=0;entryY=0;entryDx=0;entryDy=0;" edge="1" parent="6" source="12" target="23">
                    <mxGeometry width="50" height="50" relative="1" as="geometry">
                        <mxPoint x="289.99524590163946" y="160.76999999999998" as="sourcePoint"/>
                        <mxPoint x="339.99524590163946" y="110.76999999999998" as="targetPoint"/>
                        <Array as="points">
                            <mxPoint x="279.99524590163946" y="196.76999999999998"/>
                            <mxPoint x="279.99524590163946" y="59.76999999999998"/>
                        </Array>
                    </mxGeometry>
                </mxCell>
                <mxCell id="23" value="" style="externalPins=0;recursiveResize=0;ellipse;whiteSpace=wrap;html=1;aspect=fixed;fillColor=#000000;strokeColor=none;noLabel=1;snapToPoint=1;perimeter=none;resizable=0;rotatable=0;" vertex="1" parent="6">
                    <mxGeometry x="277.99524590163946" y="57.5" width="5" height="5" as="geometry"/>
                </mxCell>
                <mxCell id="24" value="" style="endArrow=classic;html=1;exitX=1;exitY=0.5;exitDx=0;exitDy=0;entryX=0;entryY=0.5;entryDx=0;entryDy=0;" edge="1" parent="6" source="17" target="10">
                    <mxGeometry width="50" height="50" relative="1" as="geometry">
                        <mxPoint x="469.99524590163946" y="50.76999999999998" as="sourcePoint"/>
                        <mxPoint x="527.9952459016395" y="50.76999999999998" as="targetPoint"/>
                    </mxGeometry>
                </mxCell>
                <mxCell id="25" value="" style="endArrow=classic;html=1;exitX=0.5;exitY=1;exitDx=0;exitDy=0;entryX=0.5;entryY=0;entryDx=0;entryDy=0;" edge="1" parent="6" source="10" target="14">
                    <mxGeometry width="50" height="50" relative="1" as="geometry">
                        <mxPoint x="479.99524590163946" y="69.76999999999998" as="sourcePoint"/>
                        <mxPoint x="519.9952459016395" y="69.76999999999998" as="targetPoint"/>
                    </mxGeometry>
                </mxCell>
                <mxCell id="26" value="" style="endArrow=classic;html=1;exitX=0.5;exitY=1;exitDx=0;exitDy=0;entryX=0.5;entryY=0;entryDx=0;entryDy=0;" edge="1" parent="6" source="14" target="16">
                    <mxGeometry width="50" height="50" relative="1" as="geometry">
                        <mxPoint x="572.9952459016395" y="88.76999999999998" as="sourcePoint"/>
                        <mxPoint x="565.9952459016395" y="125.76999999999998" as="targetPoint"/>
                    </mxGeometry>
                </mxCell>
                <mxCell id="27" value="" style="endArrow=classic;html=1;exitX=0.5;exitY=1;exitDx=0;exitDy=0;entryX=0.5;entryY=0;entryDx=0;entryDy=0;" edge="1" parent="6" source="17" target="15">
                    <mxGeometry width="50" height="50" relative="1" as="geometry">
                        <mxPoint x="572.9952459016395" y="238.76999999999998" as="sourcePoint"/>
                        <mxPoint x="389.99524590163946" y="400.77" as="targetPoint"/>
                    </mxGeometry>
                </mxCell>
                <mxCell id="28" value="" style="endArrow=none;html=1;rounded=0;curved=0;entryX=0;entryY=0.5;entryDx=0;entryDy=0;exitX=2.012;exitY=0.832;exitDx=0;exitDy=0;exitPerimeter=0;" edge="1" parent="6" source="27" target="16">
                    <mxGeometry width="50" height="50" relative="1" as="geometry">
                        <mxPoint x="399.99524590163946" y="330.77" as="sourcePoint"/>
                        <mxPoint x="335.99524590163946" y="300.77" as="targetPoint"/>
                        <Array as="points"/>
                    </mxGeometry>
                </mxCell>
                <mxCell id="29" value="" style="endArrow=classic;html=1;entryX=0.5;entryY=0;entryDx=0;entryDy=0;exitX=0.5;exitY=1;exitDx=0;exitDy=0;" edge="1" parent="6" source="15" target="11">
                    <mxGeometry width="50" height="50" relative="1" as="geometry">
                        <mxPoint x="369.99524590163946" y="510.77" as="sourcePoint"/>
                        <mxPoint x="399.99524590163946" y="390.77" as="targetPoint"/>
                    </mxGeometry>
                </mxCell>
                <mxCell id="30" value="" style="endArrow=classic;html=1;entryX=0.5;entryY=0;entryDx=0;entryDy=0;exitX=1;exitY=0.5;exitDx=0;exitDy=0;rounded=0;curved=0;" edge="1" parent="6" source="15" target="9">
                    <mxGeometry width="50" height="50" relative="1" as="geometry">
                        <mxPoint x="399.99524590163946" y="510.77" as="sourcePoint"/>
                        <mxPoint x="399.99524590163946" y="557.77" as="targetPoint"/>
                        <Array as="points">
                            <mxPoint x="562.9952459016395" y="440.77"/>
                        </Array>
                    </mxGeometry>
                </mxCell>
                <mxCell id="31" value="" style="endArrow=classic;html=1;exitX=0.5;exitY=1;exitDx=0;exitDy=0;rounded=0;curved=0;entryX=1;entryY=0.5;entryDx=0;entryDy=0;" edge="1" parent="6" source="11" target="18">
                    <mxGeometry width="50" height="50" relative="1" as="geometry">
                        <mxPoint x="279.99524590163946" y="-293.23" as="sourcePoint"/>
                        <mxPoint x="182.99524590163946" y="640.77" as="targetPoint"/>
                        <Array as="points">
                            <mxPoint x="389.99524590163946" y="650.77"/>
                        </Array>
                    </mxGeometry>
                </mxCell>
                <mxCell id="32" value="" style="endArrow=none;html=1;rounded=0;curved=0;exitX=0.5;exitY=1;exitDx=0;exitDy=0;entryX=0;entryY=0;entryDx=0;entryDy=0;" edge="1" parent="6" source="9" target="34">
                    <mxGeometry width="50" height="50" relative="1" as="geometry">
                        <mxPoint x="272.49524590163946" y="-71.25" as="sourcePoint"/>
                        <mxPoint x="322.49524590163946" y="-121.25" as="targetPoint"/>
                        <Array as="points">
                            <mxPoint x="562.9952459016395" y="650.77"/>
                        </Array>
                    </mxGeometry>
                </mxCell>
                <mxCell id="33" value="" style="externalPins=0;recursiveResize=0;ellipse;whiteSpace=wrap;html=1;aspect=fixed;fillColor=#000000;strokeColor=none;noLabel=1;snapToPoint=1;perimeter=none;resizable=0;rotatable=0;" vertex="1" parent="6">
                    <mxGeometry x="387.49524590163946" y="334.52" width="5" height="5" as="geometry"/>
                </mxCell>
                <mxCell id="34" value="" style="externalPins=0;recursiveResize=0;ellipse;whiteSpace=wrap;html=1;aspect=fixed;fillColor=#000000;strokeColor=none;noLabel=1;snapToPoint=1;perimeter=none;resizable=0;rotatable=0;" vertex="1" parent="6">
                    <mxGeometry x="387.49524590163946" y="648.52" width="5" height="5" as="geometry"/>
                </mxCell>
                <mxCell id="35" value="no" style="text;html=1;align=center;verticalAlign=middle;whiteSpace=wrap;rounded=0;" vertex="1" parent="6">
                    <mxGeometry x="456.6852459016395" y="412.6400000000001" width="60" height="30" as="geometry"/>
                </mxCell>
                <mxCell id="36" value="yes" style="text;html=1;align=center;verticalAlign=middle;whiteSpace=wrap;rounded=0;" vertex="1" parent="6">
                    <mxGeometry x="349.6852459016395" y="500.7700000000001" width="60" height="30" as="geometry"/>
                </mxCell>
                <mxCell id="37" value="2. Development" style="text;html=1;align=center;verticalAlign=middle;resizable=0;points=[];autosize=1;strokeColor=none;fillColor=none;" vertex="1" parent="4">
                    <mxGeometry x="265" width="110" height="30" as="geometry"/>
                </mxCell>
                <mxCell id="38" value="yes" style="text;html=1;align=center;verticalAlign=middle;whiteSpace=wrap;rounded=0;" vertex="1" parent="4">
                    <mxGeometry x="466" y="105" width="60" height="30" as="geometry"/>
                </mxCell>
                <mxCell id="39" value="no" style="text;html=1;align=center;verticalAlign=middle;whiteSpace=wrap;rounded=0;" vertex="1" parent="4">
                    <mxGeometry x="360" y="190" width="60" height="30" as="geometry"/>
                </mxCell>
                <mxCell id="40" value="" style="group;fontStyle=1" vertex="1" connectable="0" parent="1">
                    <mxGeometry x="2140" y="-600" width="630" height="320" as="geometry"/>
                </mxCell>
                <mxCell id="41" value="" style="rounded=0;whiteSpace=wrap;html=1;fillColor=#d5e8d4;strokeColor=#82b366;" vertex="1" parent="40">
                    <mxGeometry width="630" height="319.99999999999994" as="geometry"/>
                </mxCell>
                <mxCell id="42" value="" style="group" vertex="1" connectable="0" parent="40">
                    <mxGeometry x="50" y="20" width="552.484262295082" height="237.79000000000008" as="geometry"/>
                </mxCell>
                <mxCell id="43" value="$ &lt;b&gt;&lt;u&gt;orbit publish&lt;/u&gt;&lt;/b&gt;" style="rounded=1;whiteSpace=wrap;html=1;fontSize=12;" vertex="1" parent="42">
                    <mxGeometry x="113.77475409836063" y="162.31" width="106.22950819672131" height="38.46" as="geometry"/>
                </mxCell>
                <mxCell id="44" value="$ &lt;b&gt;&lt;u&gt;orbit lock&lt;/u&gt;&lt;/b&gt;" style="rounded=1;whiteSpace=wrap;html=1;fontSize=12;" vertex="1" parent="42">
                    <mxGeometry x="446.25475409836065" y="162.31" width="106.22950819672131" height="38.46" as="geometry"/>
                </mxCell>
                <mxCell id="45" value="Record all ip dependency information" style="ellipse;whiteSpace=wrap;html=1;aspect=fixed;" vertex="1" parent="42">
                    <mxGeometry x="273.75" y="125.29000000000008" width="112.5" height="112.5" as="geometry"/>
                </mxCell>
                <mxCell id="46" value="" style="endArrow=classic;html=1;exitX=0;exitY=0.5;exitDx=0;exitDy=0;entryX=1;entryY=0.5;entryDx=0;entryDy=0;" edge="1" parent="42" source="44" target="45">
                    <mxGeometry width="50" height="50" relative="1" as="geometry">
                        <mxPoint x="410" y="50" as="sourcePoint"/>
                        <mxPoint x="460" as="targetPoint"/>
                    </mxGeometry>
                </mxCell>
                <mxCell id="47" value="Release the state &lt;br&gt;of the ip as a new version" style="ellipse;whiteSpace=wrap;html=1;aspect=fixed;" vertex="1" parent="42">
                    <mxGeometry width="112.5" height="112.5" as="geometry"/>
                </mxCell>
                <mxCell id="48" value="" style="endArrow=classic;html=1;exitX=0;exitY=0.5;exitDx=0;exitDy=0;entryX=1;entryY=0.5;entryDx=0;entryDy=0;" edge="1" parent="42" source="45" target="43">
                    <mxGeometry width="50" height="50" relative="1" as="geometry">
                        <mxPoint x="456" y="191.54000000000002" as="sourcePoint"/>
                        <mxPoint x="396" y="191.54000000000002" as="targetPoint"/>
                    </mxGeometry>
                </mxCell>
                <mxCell id="49" value="" style="endArrow=classic;html=1;exitX=0;exitY=0.5;exitDx=0;exitDy=0;entryX=0.5;entryY=1;entryDx=0;entryDy=0;" edge="1" parent="42" source="43" target="47">
                    <mxGeometry width="50" height="50" relative="1" as="geometry">
                        <mxPoint x="66.25" y="173.31" as="sourcePoint"/>
                        <mxPoint x="-1.75" y="162.31" as="targetPoint"/>
                    </mxGeometry>
                </mxCell>
                <mxCell id="50" value="3. Deployment" style="text;html=1;align=center;verticalAlign=middle;resizable=0;points=[];autosize=1;strokeColor=none;fillColor=none;" vertex="1" parent="40">
                    <mxGeometry x="265" width="100" height="30" as="geometry"/>
                </mxCell>
                <mxCell id="51" value="" style="rounded=0;whiteSpace=wrap;html=1;fillColor=#ffe6cc;strokeColor=#d79b00;" vertex="1" parent="1">
                    <mxGeometry x="2140" y="-1130" width="630" height="500" as="geometry"/>
                </mxCell>
                <mxCell id="52" value="" style="group" vertex="1" connectable="0" parent="1">
                    <mxGeometry x="2190" y="-1070" width="529.3799999999999" height="367.02" as="geometry"/>
                </mxCell>
                <mxCell id="53" value="$ &lt;b&gt;&lt;u&gt;orbit search&lt;/u&gt;&lt;/b&gt;" style="rounded=1;whiteSpace=wrap;html=1;fontSize=12;" vertex="1" parent="52">
                    <mxGeometry x="3.134754098360702" y="328.55999999999995" width="106.22950819672131" height="38.46" as="geometry"/>
                </mxCell>
                <mxCell id="54" value="$ &lt;b&gt;&lt;u&gt;orbit read&lt;/u&gt;&lt;/b&gt;" style="rounded=1;whiteSpace=wrap;html=1;fontSize=12;" vertex="1" parent="52">
                    <mxGeometry x="393.76475409836064" y="37.019999999999754" width="106.22950819672131" height="38.46" as="geometry"/>
                </mxCell>
                <mxCell id="55" value="$ &lt;b&gt;&lt;u&gt;orbit info&lt;/u&gt;&lt;/b&gt;" style="rounded=1;whiteSpace=wrap;html=1;fontSize=12;" vertex="1" parent="52">
                    <mxGeometry x="36.89999999999998" y="37.01999999999998" width="106.23" height="38.46" as="geometry"/>
                </mxCell>
                <mxCell id="56" value="" style="endArrow=classic;html=1;exitX=0.5;exitY=0;exitDx=0;exitDy=0;entryX=0.5;entryY=1;entryDx=0;entryDy=0;" edge="1" parent="52" source="53" target="63">
                    <mxGeometry width="50" height="50" relative="1" as="geometry">
                        <mxPoint x="469.71000000000004" y="63.51999999999998" as="sourcePoint"/>
                        <mxPoint x="489.71000000000174" y="60.289999999999964" as="targetPoint"/>
                    </mxGeometry>
                </mxCell>
                <mxCell id="57" value="" style="endArrow=classic;html=1;exitX=1;exitY=0.5;exitDx=0;exitDy=0;entryX=0;entryY=0.5;entryDx=0;entryDy=0;" edge="1" parent="52" source="55" target="62">
                    <mxGeometry width="50" height="50" relative="1" as="geometry">
                        <mxPoint x="472.71000000000004" y="63.51999999999998" as="sourcePoint"/>
                        <mxPoint x="548.5093571161927" y="254.55715997434845" as="targetPoint"/>
                    </mxGeometry>
                </mxCell>
                <mxCell id="58" value="" style="endArrow=classic;html=1;exitX=0.5;exitY=0;exitDx=0;exitDy=0;entryX=0.5;entryY=1;entryDx=0;entryDy=0;" edge="1" parent="52" source="63" target="55">
                    <mxGeometry width="50" height="50" relative="1" as="geometry">
                        <mxPoint x="539.7099999999999" y="105.28999999999996" as="sourcePoint"/>
                        <mxPoint x="512.71" y="63.51999999999998" as="targetPoint"/>
                    </mxGeometry>
                </mxCell>
                <mxCell id="59" value="" style="endArrow=classic;html=1;exitX=1;exitY=0.5;exitDx=0;exitDy=0;entryX=0;entryY=0.5;entryDx=0;entryDy=0;" edge="1" parent="52" source="62" target="54">
                    <mxGeometry width="50" height="50" relative="1" as="geometry">
                        <mxPoint x="512.3328227458381" y="348.3585554194144" as="sourcePoint"/>
                        <mxPoint x="556.71" y="264.52" as="targetPoint"/>
                    </mxGeometry>
                </mxCell>
                <mxCell id="60" value="" style="endArrow=classic;html=1;exitX=0.5;exitY=1;exitDx=0;exitDy=0;entryX=0.5;entryY=0;entryDx=0;entryDy=0;" edge="1" parent="52" source="54" target="61">
                    <mxGeometry width="50" height="50" relative="1" as="geometry">
                        <mxPoint x="521.71" y="341.52" as="sourcePoint"/>
                        <mxPoint x="299.04997453044905" y="298.1866129006139" as="targetPoint"/>
                    </mxGeometry>
                </mxCell>
                <mxCell id="61" value="Refer to an &lt;br&gt;existing design &lt;br&gt;unit&#39;s source &lt;br&gt;code" style="ellipse;whiteSpace=wrap;html=1;aspect=fixed;" vertex="1" parent="52">
                    <mxGeometry x="416.88" y="135.01999999999998" width="112.5" height="112.5" as="geometry"/>
                </mxCell>
                <mxCell id="62" value="Learn more about an existing ip" style="ellipse;whiteSpace=wrap;html=1;aspect=fixed;" vertex="1" parent="52">
                    <mxGeometry x="210.63" width="112.5" height="112.5" as="geometry"/>
                </mxCell>
                <mxCell id="63" value="Survey what ip &lt;br&gt;exist in the catalog" style="ellipse;whiteSpace=wrap;html=1;aspect=fixed;" vertex="1" parent="52">
                    <mxGeometry y="157.01999999999998" width="112.5" height="112.5" as="geometry"/>
                </mxCell>
                <mxCell id="64" value="1. Research" style="text;html=1;align=center;verticalAlign=middle;resizable=0;points=[];autosize=1;strokeColor=none;fillColor=none;" vertex="1" parent="1">
                    <mxGeometry x="2409.69" y="-1130" width="90" height="30" as="geometry"/>
                </mxCell>
            </root>
        </mxGraphModel>
    </diagram>
</mxfile>